{"title":"WikiRebels finsub YLE TV1 Wikileaks, salaisuuden voima 20110112","uid":6099686,"size":865963761,"categoryP":"video","categoryS":"movies","magnet":"?xt=urn:btih:696cddaea81bc6b475ad3bf93b884b4534cb1234&amp;dn=WikiRebels+finsub+YLE+TV1+Wikileaks%2C+salaisuuden+voima+20110112&amp;tr=udp%3A%2F%2Ftracker.openbittorrent.com%3A80&amp;tr=udp%3A%2F%2Fopen.demonii.com%3A1337&amp;tr=udp%3A%2F%2Ftracker.coppersurfer.tk%3A6969&amp;tr=udp%3A%2F%2Fexodus.desync.com%3A6969","seeders":0,"leechers":0,"uploader":null,"files":2,"time":1294912699,"description":"English summary:\nWikiRebels - The Documentary, as broadcasted by The Finnish Broadcasting Company\n(YLE) at 2011-01-12. Narrated is Swedish. Fixed Finnish subtitles. Produced by\nSVT Television. &lt;a href=&quot;\nhttp://svtplay.se/v/2264028&quot; rel=&quot;nofollow&quot; target=&quot;_NEW&quot;&gt;\nhttp://svtplay.se/v/2264028&lt;/a&gt; &lt;a href=&quot;\nhttp://www.imdb.com/title/tt1805516/&quot; rel=&quot;nofollow&quot; target=&quot;_NEW&quot;&gt;\nhttp://www.imdb.com/title/tt1805516/&lt;/a&gt;\n\n\nUlkolinja: Wikileaks, salaisuuden voima\nYLE TV1 - keskiviikko 12.1.2011 klo 22.00\n\nRuotsalainen dokumentti kertoo miten Wikileaks, maailman vartioiduimpien\nsalaisuuksien paljastaja, syntyi ja kuinka organisaatio toimii kulissiensa\ntakana. EntÃƒÂ¤ millainen on mystinen Julian Assange, ristiriitojen mies.\n\nKesto             : 57 minuuttia\nGenre             : dokumentti\nTuotantovuosi     : 2010\nLinkit            : http://yle.fi/ohjelmat/941259\n                   &lt;a href=&quot; http://areena.yle.fi/video/1607506&quot; rel=&quot;nofollow&quot; target=&quot;_NEW&quot;&gt; http://areena.yle.fi/video/1607506&lt;/a&gt;\nTuotantoyhtiÃƒÂ¶     : SVT Television\nPuhuttu kieli     : Useita, enimmÃƒÂ¤kseen englanti\nSelostus          : Ruotsi\nTekstitys         : Suomi - kiinteÃƒÂ¤sti kuvassa\n\nTags:\nWikileaks, Julian Assange, Mendax, media, press, journalism, speech, freedom,\ninternet, information, source, protection, leak, war, intelligence, politics,\ndiplomacy, hacking, Iraq, Afganistan, Cuba, USA, Sweden, Iceland, Australia,\nKenya, Germany, Belgium, Hillary Clinton, Pentagon, military, scientology,\ncensorship, The Guardian, Daniel Arap Moi, police, Chaos Computer Club, CCC,\nDaniel Domscheit-Berg, Daniel Schmitt, OpenLeaks, Pirate Bay, Mikael Wiborg,\nPRQ, Guantanamo Bay, terror, terrorism, Trafigura, Sarah Palin, Washington Post,\nIMMI, SmÃƒÂ¡ri McCarthy, banking system, Kristinn Hrafnsson, Kaupthing, Herbert\nSnorrason, Birgitta JÃƒÂ³nsdÃƒÂ³ttir, Rop Gongrip, Bradley Manning, Adrian Lamo,\nReuters, Namir Noor Eldeen, Saeed Chmagh, Collateral Murder, Der Spiegel, New\nYork Times, War Logs, Geoff Morell, Robert Gates, Michael Mullen, Iain Overton,\nTBIJ, James Ball, Mike Rogers, Christian Whiton, Moneybookers, Piratpartiet,\nPirate Party, Cable Gate\n\nTechnical info:\n\nGeneral\nName             : Wikirebels-finsub-YLE-TV1-20110112-Wikileaks-salaisuuden-voima.mp4\nFormat           : MPEG-4\nFormat profile   : Base Media / Version 2\nCodec ID         : mp42\nFile size        : 826 MiB\nDuration         : 1h 3mn\nOverall bit rate : 1 815 Kbps\n\nVideo\nID                        : 1\nFormat                    : AVC\nFormat/Info               : Advanced Video Codec\nFormat profile            : &lt;a class=&quot;__cf_email__&quot; href=&quot;/cdn-cgi/l/email-protection&quot; data-cfemail=&quot;23614250464f4a4d46636f110d12&quot;&gt;[email&amp;#160;protected]&lt;/a&gt;&lt;script cf-hash='f9e31' type=&quot;text/javascript&quot;&gt;\n/* &lt;![CDATA[ */!function(){try{var t=&quot;currentScript&quot;in document?document.currentScript:function(){for(var t=document.getElementsByTagName(&quot;script&quot;),e=t.length;e--;)if(t[e].getAttribute(&quot;cf-hash&quot;))return t[e]}();if(t&amp;&amp;t.previousSibling){var e,r,n,i,c=t.previousSibling,a=c.getAttribute(&quot;data-cfemail&quot;);if(a){for(e=&quot;&quot;,r=parseInt(a.substr(0,2),16),n=2;a.length-n;n+=2)i=parseInt(a.substr(n,2),16)^r,e+=String.fromCharCode(i);e=document.createTextNode(e),c.parentNode.replaceChild(e,c)}}}catch(u){}}();/* ]]&gt; */&lt;/script&gt;\nFormat settings, CABAC    : No\nFormat settings, ReFrames : 3 frames\nCodec ID                  : avc1\nCodec ID/Info             : Advanced Video Coding\nDuration                  : 1h 3mn\nBit rate mode             : Variable\nBit rate                  : 1 650 Kbps\nWidth                     : 480 pixels\nHeight                    : 272 pixels\nDisplay aspect ratio      : 16:9\nFrame rate mode           : Constant\nFrame rate                : 25.000 fps\nResolution                : 8 bits\nColorimetry               : 4:2:0\nScan type                 : Progressive\nBits/(Pixel*Frame)        : 0.506\nStream size               : 752 MiB (91%)\nWriting library           : x264 core 107\n\nAudio\nID                        : 2\nFormat                    : AAC\nFormat/Info               : Advanced Audio Codec\nFormat version            : Version 4\nFormat profile            : LC\nFormat settings, SBR      : No\nCodec ID                  : 40\nDuration                  : 1h 3mn\nBit rate mode             : Variable\nBit rate                  : 160 Kbps\nMaximum bit rate          : 240 Kbps\nChannel(s)                : 2 channels\nChannel positions         : L R\nSampling rate             : 48.0 KHz\nStream size               : 72.8 MiB (9%)\n\n\nWe, the people, will fight back. We do not forgive. We do not forget. Expect us.\n","torrent":{"xt":"urn:btih:696cddaea81bc6b475ad3bf93b884b4534cb1234","amp;dn":"WikiRebels+finsub+YLE+TV1+Wikileaks%2C+salaisuuden+voima+20110112","amp;tr":["udp%3A%2F%2Ftracker.openbittorrent.com%3A80","udp%3A%2F%2Fopen.demonii.com%3A1337","udp%3A%2F%2Ftracker.coppersurfer.tk%3A6969","udp%3A%2F%2Fexodus.desync.com%3A6969"],"infoHash":"696cddaea81bc6b475ad3bf93b884b4534cb1234","infoHashBuffer":{"type":"Buffer","data":[105,108,221,174,168,27,198,180,117,173,59,249,59,136,75,69,52,203,18,52]},"announce":[],"urlList":[]}}